<svg height="512" viewBox="0 0 512 512" width="512" xmlns="http://www.w3.org/2000/svg"><g id="Edit-3" data-name="Edit"><path d="m90.294 413.706a7.984 7.984 0 0 0 1.8-.206l73.539-16.97a8 8 0 0 0 3.858-2.138l250.529-250.529a40 40 0 0 0 0-56.569l-11.314-11.313a40.045 40.045 0 0 0 -56.569 0l-250.53 250.529a8.005 8.005 0 0 0 -2.137 3.858l-16.97 73.539a8 8 0 0 0 7.8 9.8zm256.186-309.441 45.254 45.255-216.587 216.587-45.254-45.254zm50.912-16.971 11.313 11.314a24 24 0 0 1 0 33.941l-5.656 5.657-45.255-45.255 5.657-5.657a24.029 24.029 0 0 1 33.941 0zm-282.848 248.906 4.034-4.034 45.255 45.254-4.034 4.035-58.831 13.576z"/><path d="m207 297a7.976 7.976 0 0 0 5.657-2.343l128.167-128.167a8 8 0 1 0 -11.314-11.313l-128.167 128.166a8 8 0 0 0 5.657 13.657z"/><path d="m180.8 323.2a7.974 7.974 0 0 0 5.656-2.343l5.657-5.657a8 8 0 1 0 -11.312-11.314l-5.658 5.657a8 8 0 0 0 5.657 13.657z"/><path d="m464 424h-448a8 8 0 0 0 0 16h448a8 8 0 0 0 0-16z"/><path d="m496 424h-8a8 8 0 0 0 0 16h8a8 8 0 0 0 0-16z"/></g></svg>