<svg id="svg" version="1.1" xmlns="http://www.w3.org/2000/svg" xmlns:xlink="http://www.w3.org/1999/xlink" width="400" height="400" viewBox="0, 0, 400,400"><g id="svgg"><path id="path0" d="M205.917 88.265 C 189.633 89.809,175.642 96.248,164.487 107.333 C 161.887 109.917,160.762 111.154,159.338 113.000 C 159.019 113.412,158.716 113.787,158.665 113.833 C 157.214 115.123,152.339 123.236,150.452 127.500 C 149.412 129.850,148.877 131.225,148.179 133.333 C 147.380 135.748,147.210 136.342,146.605 138.833 C 146.078 141.008,145.855 142.153,145.323 145.417 C 142.712 161.456,148.062 182.262,157.944 194.500 C 158.055 194.637,158.929 195.725,159.887 196.917 C 166.296 204.891,175.018 211.420,185.333 215.965 C 188.203 217.230,194.006 219.064,197.000 219.653 C 197.504 219.753,198.292 219.911,198.750 220.007 C 210.694 222.484,225.091 220.991,236.917 216.048 C 241.020 214.332,247.731 210.571,250.170 208.619 C 250.309 208.508,251.022 207.971,251.753 207.425 C 252.485 206.880,253.167 206.355,253.270 206.259 C 253.372 206.162,253.860 205.746,254.353 205.333 C 271.852 190.698,280.550 167.153,276.971 144.106 L 276.767 142.795 256.509 142.887 C 233.904 142.988,232.411 143.064,227.845 144.339 C 221.270 146.174,215.726 152.203,211.906 161.667 C 211.301 163.167,211.029 165.915,211.445 166.333 C 211.490 166.379,220.065 166.454,230.500 166.500 L 249.473 166.583 248.734 168.583 C 247.666 171.473,245.051 176.440,243.846 177.867 C 243.745 177.986,243.433 178.383,243.153 178.750 C 232.620 192.523,214.335 198.147,198.417 192.508 C 195.840 191.595,195.094 191.280,193.097 190.257 C 178.388 182.722,169.798 167.091,171.423 150.815 C 172.456 140.464,177.860 130.140,185.415 124.083 C 185.872 123.717,186.397 123.278,186.582 123.109 C 187.298 122.451,191.170 119.982,192.833 119.122 C 196.890 117.026,199.895 116.047,205.583 114.971 C 207.174 114.670,215.116 114.668,216.833 114.968 C 220.071 115.534,222.882 116.258,225.095 117.096 C 233.378 120.233,244.342 115.596,254.146 104.809 L 254.698 104.202 252.960 102.809 C 251.000 101.238,250.311 100.708,249.747 100.339 C 249.532 100.198,248.695 99.642,247.887 99.103 C 245.141 97.270,243.593 96.379,240.583 94.898 C 234.828 92.065,228.285 89.957,222.250 88.992 C 218.389 88.375,217.557 88.314,212.167 88.259 C 209.096 88.227,206.283 88.230,205.917 88.265 " stroke="none" fill="#2cb44c" fill-rule="evenodd"></path><path id="path1" d="M208.083 35.269 C 202.537 35.544,200.044 35.698,198.833 35.839 C 195.752 36.199,193.184 36.543,191.833 36.775 C 191.054 36.909,190.027 37.085,189.550 37.166 C 187.153 37.573,182.977 38.533,179.000 39.591 C 175.782 40.448,168.453 42.968,165.979 44.069 C 165.670 44.207,164.854 44.558,164.167 44.849 C 156.266 48.196,146.803 53.668,140.417 58.580 C 136.950 61.247,136.372 61.701,135.758 62.243 C 135.127 62.798,135.085 62.811,134.775 62.537 C 134.464 62.261,134.459 62.264,134.638 62.606 C 134.807 62.928,134.700 63.073,133.538 64.106 C 130.855 66.491,130.340 66.979,127.500 69.829 C 124.154 73.185,122.473 75.006,120.566 77.333 C 120.304 77.654,120.048 77.954,119.998 78.000 C 119.949 78.046,119.649 78.421,119.333 78.833 C 119.017 79.246,118.711 79.621,118.654 79.667 C 118.596 79.712,117.731 80.840,116.733 82.172 C 110.543 90.428,106.038 98.320,101.800 108.333 C 101.293 109.530,100.500 111.599,100.500 111.724 C 100.500 111.802,100.390 112.103,100.255 112.391 C 99.630 113.734,97.358 121.104,96.523 124.500 C 94.837 131.352,93.834 137.855,93.324 145.250 C 93.091 148.614,93.203 161.139,93.486 163.417 C 93.588 164.242,93.789 165.929,93.932 167.167 C 94.382 171.063,95.314 176.425,96.103 179.656 C 96.247 180.246,96.388 180.846,96.416 180.989 C 97.003 183.938,99.549 192.044,101.000 195.583 C 102.361 198.905,102.729 199.847,103.066 200.870 C 104.607 205.559,108.114 213.442,110.530 217.649 C 110.972 218.418,111.333 219.080,111.333 219.118 C 111.333 219.295,114.606 224.375,117.701 229.000 C 119.572 231.796,121.368 234.533,121.692 235.083 C 122.017 235.633,123.356 237.846,124.666 240.000 C 125.977 242.154,128.564 246.429,130.414 249.500 C 132.264 252.571,134.440 256.171,135.249 257.500 C 136.058 258.829,137.259 260.817,137.917 261.917 C 139.524 264.598,144.272 272.460,151.002 283.583 C 154.053 288.625,156.790 293.162,157.085 293.667 C 157.571 294.496,161.753 301.423,166.795 309.750 C 167.850 311.492,169.066 313.517,169.497 314.250 C 169.929 314.983,171.243 317.158,172.418 319.083 C 173.592 321.008,174.904 323.183,175.333 323.917 C 175.763 324.650,176.726 326.244,177.473 327.460 C 178.221 328.675,178.833 329.703,178.833 329.743 C 178.833 329.783,179.297 330.551,179.864 331.450 C 180.431 332.348,181.246 333.683,181.676 334.417 C 182.105 335.150,183.527 337.512,184.835 339.667 C 186.144 341.821,187.511 344.101,187.874 344.733 C 188.236 345.365,188.856 346.385,189.250 347.000 C 189.644 347.615,190.263 348.635,190.625 349.267 C 190.987 349.899,192.355 352.179,193.665 354.333 C 194.974 356.488,196.397 358.850,196.826 359.583 C 197.256 360.317,198.095 361.704,198.690 362.667 C 199.962 364.721,201.474 367.223,202.919 369.667 C 204.029 371.543,205.965 374.765,206.475 375.583 C 206.646 375.858,207.491 377.226,208.352 378.623 C 209.212 380.020,209.984 381.142,210.066 381.115 C 210.198 381.073,213.786 375.251,215.836 371.750 C 216.266 371.017,217.688 368.654,218.997 366.500 C 220.881 363.399,223.651 358.814,224.838 356.833 C 225.233 356.175,228.420 350.899,229.792 348.631 C 232.666 343.883,233.546 342.420,234.330 341.083 C 234.760 340.350,235.743 338.723,236.514 337.468 C 237.286 336.213,238.592 334.056,239.417 332.675 C 240.242 331.293,241.435 329.320,242.069 328.290 C 242.702 327.260,243.572 325.817,244.002 325.083 C 244.431 324.350,245.853 321.987,247.162 319.833 C 248.470 317.679,249.894 315.317,250.325 314.583 C 250.755 313.850,252.181 311.487,253.492 309.333 C 254.803 307.179,256.229 304.817,256.660 304.083 C 257.618 302.455,259.044 300.093,261.154 296.636 C 262.032 295.199,263.425 292.891,264.250 291.509 C 265.075 290.127,266.269 288.153,266.904 287.123 C 267.538 286.093,268.408 284.650,268.836 283.917 C 269.264 283.183,270.686 280.821,271.997 278.667 C 273.307 276.512,274.660 274.262,275.003 273.667 C 275.347 273.071,276.218 271.629,276.939 270.462 C 277.660 269.295,278.925 267.212,279.750 265.833 C 281.943 262.167,283.989 258.783,285.897 255.667 C 288.909 250.746,289.635 248.891,290.008 245.159 C 291.140 233.833,282.268 224.000,270.917 224.000 C 266.548 224.000,263.288 225.113,258.917 228.096 C 258.092 228.659,256.854 229.440,256.167 229.832 C 255.479 230.223,254.542 230.759,254.083 231.024 C 252.822 231.751,248.843 233.743,247.292 234.423 C 246.536 234.755,245.692 235.128,245.417 235.252 C 243.684 236.031,239.424 237.570,236.464 238.487 C 231.260 240.100,223.484 241.562,218.250 241.912 C 217.425 241.967,216.343 242.052,215.846 242.101 C 211.251 242.551,200.350 241.883,194.833 240.813 C 187.583 239.406,180.871 237.376,175.551 234.981 C 175.166 234.808,174.805 234.667,174.747 234.667 C 173.294 234.667,159.460 226.365,155.916 223.366 C 155.732 223.210,155.245 222.822,154.833 222.502 C 154.421 222.183,154.002 221.845,153.903 221.752 C 153.803 221.659,153.242 221.171,152.657 220.667 C 149.045 217.558,146.186 214.668,142.349 210.250 C 142.110 209.975,141.655 209.412,141.337 209.000 C 141.019 208.588,140.714 208.213,140.660 208.167 C 140.605 208.121,140.229 207.633,139.823 207.083 C 139.417 206.533,139.039 206.046,138.983 206.000 C 137.708 204.965,131.458 194.293,129.466 189.750 C 129.185 189.108,128.786 188.208,128.580 187.750 C 125.724 181.390,123.385 172.627,122.175 163.750 C 121.371 157.849,121.362 147.795,122.156 142.333 C 122.722 138.444,122.867 137.502,123.002 136.833 C 124.589 128.981,126.056 124.229,129.178 116.833 C 131.642 110.995,138.163 100.379,141.615 96.583 C 141.782 96.400,142.293 95.805,142.751 95.260 C 145.352 92.168,150.115 87.395,152.910 85.083 C 153.353 84.717,153.799 84.339,153.900 84.244 C 154.044 84.108,155.510 82.937,157.083 81.701 C 158.961 80.226,163.769 77.087,167.083 75.172 C 168.911 74.116,175.579 70.833,175.895 70.833 C 175.947 70.833,176.386 70.654,176.870 70.435 C 178.509 69.694,183.197 68.036,185.417 67.413 C 185.967 67.259,186.604 67.070,186.833 66.993 C 187.475 66.778,189.969 66.144,191.083 65.913 C 191.633 65.798,192.646 65.588,193.333 65.444 C 194.505 65.200,196.170 64.921,198.917 64.509 C 216.525 61.867,237.167 65.648,253.167 74.445 C 253.946 74.873,254.808 75.343,255.083 75.490 C 264.077 80.279,275.206 90.084,281.956 99.167 C 282.740 100.221,283.579 101.346,283.820 101.667 C 284.062 101.987,284.378 102.438,284.523 102.667 C 286.444 105.705,291.689 108.333,295.833 108.333 C 306.367 108.333,313.548 96.608,308.567 87.542 C 307.365 85.354,302.767 79.241,299.810 75.898 C 294.527 69.926,289.889 65.485,284.167 60.916 C 283.479 60.367,282.879 59.878,282.833 59.829 C 282.419 59.388,276.854 55.461,274.298 53.807 C 269.897 50.957,263.567 47.526,259.083 45.558 C 258.350 45.236,257.525 44.870,257.250 44.744 C 256.975 44.617,255.662 44.095,254.333 43.583 C 253.004 43.071,251.767 42.585,251.583 42.502 C 250.870 42.181,246.199 40.620,244.667 40.190 C 244.346 40.100,243.521 39.865,242.833 39.667 C 240.996 39.140,237.387 38.225,236.333 38.019 C 235.829 37.921,234.892 37.729,234.250 37.593 C 229.590 36.608,223.393 35.799,218.333 35.516 C 214.626 35.308,209.688 35.189,208.083 35.269 M210.686 165.297 C 210.235 166.863,210.245 166.905,210.989 166.646 C 211.288 166.541,211.454 166.408,211.358 166.348 C 211.262 166.289,211.161 165.718,211.133 165.079 L 211.083 163.917 210.686 165.297 " stroke="none" fill="#ecb41c" fill-rule="evenodd"></path><path id="path2" d="" stroke="none" fill="#c4b42c" fill-rule="evenodd"></path><path id="path3" d="M211.224 165.083 C 211.224 165.817,211.254 166.096,211.289 165.704 C 211.324 165.312,211.324 164.712,211.288 164.371 C 211.252 164.029,211.223 164.350,211.224 165.083 " stroke="none" fill="#9ab43c" fill-rule="evenodd"></path><path id="path4" d="M242.884 142.958 C 243.782 142.988,245.207 142.988,246.050 142.957 C 246.893 142.927,246.158 142.903,244.417 142.903 C 242.675 142.903,241.985 142.928,242.884 142.958 " stroke="none" fill="#76b444" fill-rule="evenodd"></path></g></svg>